<?xml version="1.0" encoding="UTF-8"?>
<svg id="Layer_2" data-name="Layer 2" xmlns="http://www.w3.org/2000/svg" viewBox="0 0 591.21 512">
  <defs>
    <style>
      .cls-1 {
        fill: #fff;
      }

      .cls-2 {
        fill: #5a8c2a;
      }

      .cls-3 {
        fill: #6d4c2d;
      }

      .cls-4 {
        fill: #63a32b;
      }

      .cls-5 {
        fill: #fff800;
      }

      .cls-6 {
        fill: #5b3e25;
      }

      .cls-7 {
        fill: none;
        stroke: #fff800;
        stroke-miterlimit: 10;
        stroke-width: 4px;
      }
    </style>
  </defs>
  <g id="Layer_1-2" data-name="Layer 1">
    <polygon class="cls-1" points="443.41 0 147.8 0 0 256 147.8 512 443.41 512 591.21 256 443.41 0"/>
    <path class="cls-5" d="m297.77,256.32c-.48.63-.87,1.33-1.17,2.09l-3.17.02c.51-1.84,1.46-3.5,2.73-4.86l1.61,2.75Z"/>
    <polygon class="cls-4" points="458.6 144 295.6 230.24 295.6 308 254.6 287 254.6 246 212.1 223 212.1 257.5 174.1 233.5 174.1 201.5 135.1 178.5 135.1 143.5 297.6 48 458.6 144"/>
    <polygon class="cls-6" points="457.6 369 295.6 463 295.6 350 335.6 328 335.6 293 378.6 269 378.6 301 418.6 277 418.6 243 456.6 222 457.6 369"/>
    <polygon class="cls-3" points="295.6 350 295.6 463 132.6 370 132.6 222 171.6 245 171.6 275 213.6 299 213.6 267 253.6 290 253.6 329 295.6 350"/>
    <polygon class="cls-2" points="458.6 144 458.6 180 422.6 198 422.6 232 377.6 258 377.6 227 337.6 249 337.6 285 295.6 308 295.6 230.24 458.6 144"/>
    <g>
      <path class="cls-5" d="m227.04,356.22l-24.42-41.67-30.12,52.97,48.37-.32,2.99-.02c-.01-.15-.01-.3-.01-.45,0-1.17.23-2.29.64-3.32.3-.76.69-1.46,1.17-2.09.78-1.03,1.76-1.89,2.9-2.5l-1.52-2.6Zm-5.72,7.21l-42.31.28,23.66-41.62,21.38,36.48c-1.27,1.36-2.22,3.02-2.73,4.86Z"/>
      <path class="cls-5" d="m232.85,354.73c-2.11,0-4.09.54-5.81,1.49-1.11.62-2.13,1.42-2.99,2.35-1.27,1.36-2.22,3.02-2.73,4.86-.31,1.04-.47,2.15-.47,3.3,0,.16,0,.31.02.47.24,6.41,5.51,11.53,11.98,11.53s12-5.37,12-12-5.37-12-12-12Zm0,21c-4.82,0-8.75-3.79-8.99-8.55-.01-.15-.01-.3-.01-.45,0-1.17.23-2.29.64-3.32.3-.76.69-1.46,1.17-2.09.78-1.03,1.76-1.89,2.9-2.5,1.28-.7,2.74-1.09,4.29-1.09,4.97,0,9,4.03,9,9s-4.03,9-9,9Z"/>
      <rect class="cls-5" x="158.65" y="332.08" width="33.85" height="4" transform="translate(190.56 -43.03) rotate(30)"/>
      <rect class="cls-5" x="238.6" y="377.22" width="33.96" height="4" transform="translate(223.85 -76.98) rotate(30)"/>
    </g>
    <g>
      <path class="cls-7" d="m430.47,359.15s-44.91,26.21-75.8,12.96c0,0,5.4-34.41,47.72-59.1,0,0-4.64,28.76,28.08,46.14Z"/>
      <line class="cls-7" x1="441.37" y1="337.16" x2="418.05" y2="350.77"/>
      <line class="cls-7" x1="427.26" y1="312.98" x2="403.4" y2="326.62"/>
      <line class="cls-7" x1="354.67" y1="372.11" x2="329.19" y2="386.98"/>
    </g>
  </g>
</svg>